<?xml version="1.0" encoding="UTF-8"?>
<!DOCTYPE svg PUBLIC "-//W3C//DTD SVG 1.1//EN" "http://www.w3.org/Graphics/SVG/1.1/DTD/svg11.dtd">
<svg xmlns="http://www.w3.org/2000/svg" version="1.1" width="375px" height="667px" style="shape-rendering:geometricPrecision; text-rendering:geometricPrecision; image-rendering:optimizeQuality; fill-rule:evenodd; clip-rule:evenodd" xmlns:xlink="http://www.w3.org/1999/xlink">
<g><path style="opacity:1" fill="#dd4125" d="M -0.5,-0.5 C 124.5,-0.5 249.5,-0.5 374.5,-0.5C 374.5,221.833 374.5,444.167 374.5,666.5C 249.5,666.5 124.5,666.5 -0.5,666.5C -0.5,444.167 -0.5,221.833 -0.5,-0.5 Z"/></g>
<g><path style="opacity:1" fill="#fef9f9" d="M 75.5,252.5 C 85.5056,252.334 95.5056,252.5 105.5,253C 110.788,255.402 113.122,259.568 112.5,265.5C 112.68,268.58 112.014,271.413 110.5,274C 112.71,275.509 114.543,277.342 116,279.5C 116.5,286.492 116.666,293.492 116.5,300.5C 111.821,300.666 107.155,300.499 102.5,300C 101.697,295.586 101.197,291.086 101,286.5C 97.6064,285.544 94.1064,285.211 90.5,285.5C 90.8025,290.43 90.4692,295.263 89.5,300C 84.581,300.802 79.7477,300.635 75,299.5C 74.1835,283.759 74.3501,268.092 75.5,252.5 Z"/></g>
<g><path style="opacity:1" fill="#fefbfa" d="M 124.5,252.5 C 135.838,252.333 147.172,252.5 158.5,253C 159.833,257 159.833,261 158.5,265C 152.175,265.5 145.842,265.666 139.5,265.5C 139.5,267.167 139.5,268.833 139.5,270.5C 144.179,270.334 148.845,270.501 153.5,271C 154.833,274.667 154.833,278.333 153.5,282C 148.845,282.499 144.179,282.666 139.5,282.5C 139.5,284.167 139.5,285.833 139.5,287.5C 145.842,287.334 152.175,287.5 158.5,288C 159.833,292 159.833,296 158.5,300C 146.924,300.82 135.424,300.654 124,299.5C 123.183,283.759 123.35,268.092 124.5,252.5 Z"/></g>
<g><path style="opacity:1" fill="#fefafa" d="M 175.5,252.5 C 182.841,252.334 190.174,252.5 197.5,253C 200.71,259.283 203.543,265.783 206,272.5C 207.548,281.438 207.881,290.438 207,299.5C 202.263,300.469 197.43,300.803 192.5,300.5C 192.5,296.5 192.5,292.5 192.5,288.5C 188.5,288.5 184.5,288.5 180.5,288.5C 180.793,292.437 180.46,296.27 179.5,300C 174.913,300.799 170.413,300.632 166,299.5C 165.333,292.167 165.333,284.833 166,277.5C 168.494,268.843 171.661,260.509 175.5,252.5 Z"/></g>
<g><path style="opacity:1" fill="#fef8f7" d="M 215.5,252.5 C 225.839,252.334 236.172,252.5 246.5,253C 251.667,254.167 254.833,257.333 256,262.5C 256.667,271.833 256.667,281.167 256,290.5C 254.833,295.667 251.667,298.833 246.5,300C 235.923,300.819 225.423,300.652 215,299.5C 214.183,283.759 214.35,268.092 215.5,252.5 Z"/></g>
<g><path style="opacity:1" fill="#fefbfb" d="M 263.5,252.5 C 268.43,252.197 273.263,252.531 278,253.5C 278.333,258.5 278.667,263.5 279,268.5C 280.216,270.968 281.883,272.968 284,274.5C 286.393,272.726 288.059,270.393 289,267.5C 289.499,262.511 289.666,257.511 289.5,252.5C 294.43,252.197 299.263,252.531 304,253.5C 304.667,259.5 304.667,265.5 304,271.5C 300,277.5 296,283.5 292,289.5C 291.667,292.833 291.333,296.167 291,299.5C 286,300.833 281,300.833 276,299.5C 275.667,295.833 275.333,292.167 275,288.5C 270.943,283.442 267.276,278.108 264,272.5C 263.5,265.842 263.334,259.175 263.5,252.5 Z"/></g>
<g><path style="opacity:1" fill="#dd4226" d="M 90.5,264.5 C 97.3034,263.735 99.3034,266.568 96.5,273C 94.5273,273.495 92.5273,273.662 90.5,273.5C 90.5,270.5 90.5,267.5 90.5,264.5 Z"/></g>
<g><path style="opacity:1" fill="#de462b" d="M 184.5,265.5 C 185.822,265.33 186.989,265.663 188,266.5C 189.322,269.637 190.488,272.804 191.5,276C 188.183,276.498 184.85,276.665 181.5,276.5C 182.301,272.765 183.301,269.099 184.5,265.5 Z"/></g>
<g><path style="opacity:1" fill="#dc4124" d="M 230.5,265.5 C 239.894,263.408 243.227,267.074 240.5,276.5C 243.227,285.926 239.894,289.592 230.5,287.5C 230.5,280.167 230.5,272.833 230.5,265.5 Z"/></g>
<g><path style="opacity:1" fill="#fefafa" d="M 75.5,312.5 C 88.5043,312.333 101.504,312.5 114.5,313C 115.626,316.744 115.793,320.577 115,324.5C 111.27,325.46 107.437,325.793 103.5,325.5C 103.667,336.838 103.5,348.172 103,359.5C 97.9283,360.471 92.7616,360.805 87.5,360.5C 87.5,348.833 87.5,337.167 87.5,325.5C 83.5633,325.793 79.73,325.46 76,324.5C 75.5012,320.514 75.3345,316.514 75.5,312.5 Z"/></g>
<g><path style="opacity:1" fill="#fefafa" d="M 127.5,312.5 C 134.841,312.334 142.174,312.5 149.5,313C 152.71,319.283 155.543,325.783 158,332.5C 159.548,341.438 159.881,350.438 159,359.5C 154.263,360.469 149.43,360.803 144.5,360.5C 144.5,356.5 144.5,352.5 144.5,348.5C 140.5,348.5 136.5,348.5 132.5,348.5C 132.793,352.437 132.46,356.27 131.5,360C 126.913,360.799 122.413,360.632 118,359.5C 117.333,352.167 117.333,344.833 118,337.5C 120.494,328.843 123.661,320.509 127.5,312.5 Z"/></g>
<g><path style="opacity:1" fill="#fef9f9" d="M 167.5,312.5 C 177.172,312.334 186.839,312.5 196.5,313C 203.078,316.561 205.245,322.061 203,329.5C 202.535,330.931 201.701,332.097 200.5,333C 203.583,333.786 205.749,335.619 207,338.5C 207.667,343.5 207.667,348.5 207,353.5C 206.193,356.973 204.027,359.14 200.5,360C 189.257,360.82 178.09,360.653 167,359.5C 166.183,343.759 166.35,328.092 167.5,312.5 Z"/></g>
<g><path style="opacity:1" fill="#fef8f7" d="M 215.5,312.5 C 220.43,312.197 225.263,312.531 230,313.5C 230.5,324.828 230.667,336.162 230.5,347.5C 233.167,347.5 235.833,347.5 238.5,347.5C 238.203,343.233 238.536,339.066 239.5,335C 243.833,334.333 248.167,334.333 252.5,335C 253.833,343.333 253.833,351.667 252.5,360C 239.924,360.821 227.424,360.655 215,359.5C 214.183,343.759 214.35,328.092 215.5,312.5 Z"/></g>
<g><path style="opacity:1" fill="#fefbfa" d="M 261.5,312.5 C 272.838,312.333 284.172,312.5 295.5,313C 296.833,317 296.833,321 295.5,325C 289.175,325.5 282.842,325.666 276.5,325.5C 276.5,327.167 276.5,328.833 276.5,330.5C 281.179,330.334 285.845,330.501 290.5,331C 291.833,334.667 291.833,338.333 290.5,342C 285.845,342.499 281.179,342.666 276.5,342.5C 276.5,344.167 276.5,345.833 276.5,347.5C 282.842,347.334 289.175,347.5 295.5,348C 296.833,352 296.833,356 295.5,360C 283.924,360.82 272.424,360.654 261,359.5C 260.183,343.759 260.35,328.092 261.5,312.5 Z"/></g>
<g><path style="opacity:1" fill="#dc4124" d="M 182.5,323.5 C 189.158,322.344 191.158,324.844 188.5,331C 186.527,331.495 184.527,331.662 182.5,331.5C 182.5,328.833 182.5,326.167 182.5,323.5 Z"/></g>
<g><path style="opacity:1" fill="#de462b" d="M 136.5,325.5 C 137.822,325.33 138.989,325.663 140,326.5C 141.322,329.637 142.488,332.804 143.5,336C 140.183,336.498 136.85,336.665 133.5,336.5C 134.301,332.765 135.301,329.099 136.5,325.5 Z"/></g>
<g><path style="opacity:1" fill="#dc4124" d="M 182.5,341.5 C 185.518,341.335 188.518,341.502 191.5,342C 192.833,344.333 192.833,346.667 191.5,349C 188.518,349.498 185.518,349.665 182.5,349.5C 182.5,346.833 182.5,344.167 182.5,341.5 Z"/></g>
</svg>
